<svg width="20" height="20" viewBox="0 0 20 20" xmlns="http://www.w3.org/2000/svg">
    <defs>
        <filter color-interpolation-filters="auto" id="a">
            <feColorMatrix in="SourceGraphic" values="0 0 0 0 0.211765 0 0 0 0 0.227451 0 0 0 0 0.239216 0 0 0 1.000000 0"/>
        </filter>
    </defs>
    <g transform="translate(-239 -15)" filter="url(#a)" fill="none" fill-rule="evenodd">
        <path d="M249.842 15.5c.447 0 .864.138 1.2.377.324.23.572.554.69.937.25 1.12.532 1.424.869 1.654.99.55 1.424.563 1.832.478.727-.225 1.314-.271 1.8-.17.407.086.736.277.98.55l.1.123.93 1.497c.213.345.29.735.241 1.109-.05.375-.226.734-.517 1.019-.92.772-1.056 1.159-1.1 1.546-.014 1.12.202 1.485.492 1.781.563.47.894.911 1.041 1.347.12.358.107.705-.017 1.027l-.06.136-.922 1.51c-.22.355-.552.618-.932.769a2.114 2.114 0 0 1-1.249.094c-1.142-.35-1.559-.279-1.931-.125-1.024.54-1.25.898-1.378 1.275-.156.697-.401 1.186-.732 1.522-.284.29-.63.458-1.008.518l-.164.02-1.852.006a2.07 2.07 0 0 1-1.2-.377 1.808 1.808 0 0 1-.69-.94c-.248-1.116-.53-1.422-.867-1.653-.99-.548-1.423-.562-1.83-.477-.728.224-1.314.27-1.8.169a1.772 1.772 0 0 1-.977-.545l-.1-.121-.935-1.504a1.684 1.684 0 0 1-.241-1.11c.05-.376.227-.735.52-1.02.917-.768 1.054-1.156 1.099-1.544.013-1.12-.202-1.484-.491-1.78-.564-.472-.895-.913-1.042-1.35a1.477 1.477 0 0 1 .017-1.025l.06-.136.923-1.51c.22-.357.554-.62.937-.77.388-.153.828-.19 1.255-.09 1.094.336 1.732.236 2.267-.054.517-.279.893-.733 1.063-1.262.138-.619.375-1.066.7-1.379a1.844 1.844 0 0 1 1.004-.496l.163-.02 1.852-.006zM249 21.68c-.966 0-1.839.368-2.471.96a3.222 3.222 0 0 0-1.04 2.36c0 .92.395 1.756 1.04 2.36a3.607 3.607 0 0 0 2.471.96c.966 0 1.839-.368 2.471-.96a3.222 3.222 0 0 0 1.04-2.36c0-.92-.395-1.756-1.04-2.36a3.607 3.607 0 0 0-2.471-.96z" stroke="#363A3D"/>
    </g>
</svg>
