<svg xmlns="http://www.w3.org/2000/svg" width="20" height="19" viewBox="0 0 20 19">
    <g fill="none" fill-rule="evenodd">
        <path d="M0.003 0H20.003V20.455H0.003z"
            transform="translate(-16 -38) translate(0 25) translate(15.997 12.273)" />
        <g fill="#363A3D">
            <path
                d="M9.448.25c.296.302.323.776.08 1.11l-.08.095-6.604 6.752h16.327c.46 0 .834.383.834.853 0 .432-.314.788-.72.845l-.114.007H2.844l6.604 6.754c.296.302.323.776.08 1.11l-.08.095c-.296.302-.759.33-1.085.082l-.093-.082L.244 9.663c-.296-.303-.323-.776-.08-1.11l.08-.095L8.27.25c.325-.333.853-.333 1.178 0z"
                transform="translate(-16 -38) translate(0 25) translate(15.997 12.273) translate(0 1.167)" />
        </g>
    </g>
</svg>